<svg version="1.1" id="Layer_1" xmlns="http://www.w3.org/2000/svg" xmlns:xlink="http://www.w3.org/1999/xlink" x="0px" y="0px"
	 width="100%" viewBox="0 0 400 400" enable-background="new 0 0 400 400" xml:space="preserve">
<path fill="#000000" opacity="1.000000" stroke="none" 
	d="
M192.000000,401.000000 
	C128.019836,401.000000 64.539680,401.000000 1.029761,401.000000 
	C1.029761,267.728180 1.029761,134.456329 1.029761,1.092250 
	C134.230118,1.092250 267.460327,1.092250 400.845276,1.092250 
	C400.845276,134.333191 400.845276,267.666565 400.845276,401.000000 
	C331.456390,401.000000 261.978210,401.000000 192.000000,401.000000 
M252.780334,176.524933 
	C252.057571,176.057220 251.334808,175.589508 250.092621,174.887833 
	C249.346542,174.029037 248.600464,173.170242 247.848343,171.568237 
	C247.114319,171.100052 246.380295,170.631866 245.180420,169.967911 
	C244.868271,169.572006 244.556122,169.176086 244.655518,167.984756 
	C245.845291,166.443085 247.035049,164.901413 248.819992,163.738785 
	C254.291687,169.322601 259.763397,174.906433 265.178345,181.272934 
	C265.926086,181.784531 266.673859,182.296112 268.030640,183.168793 
	C270.097748,185.891373 272.756409,186.777145 276.221680,186.700180 
	C286.164520,186.479324 296.115601,186.596146 306.063263,186.630905 
	C324.624146,186.695740 343.184875,186.796356 362.374420,187.015350 
	C362.808105,186.671509 363.241791,186.327667 363.675476,185.983826 
	C363.212036,185.643906 362.748596,185.304001 361.695862,184.607437 
	C341.563599,164.969864 321.454285,145.308548 301.249573,125.745834 
	C299.837891,124.379036 297.722168,122.899635 295.928345,122.892700 
	C266.948547,122.780594 237.967819,122.898781 208.804794,122.178329 
	C203.908463,121.791023 199.016251,121.281921 194.112442,121.116501 
	C193.099487,121.082314 192.043365,122.327583 190.078613,122.834335 
	C161.580597,122.816223 133.082321,122.746002 104.585129,122.891167 
	C102.574707,122.901405 100.079659,124.004433 98.641113,125.435074 
	C80.691048,143.286499 62.891975,161.289810 45.062752,179.262665 
	C42.927654,181.414963 40.843300,183.617599 37.935154,186.624283 
	C44.475090,186.624283 49.756207,186.605453 55.037148,186.627579 
	C76.358109,186.716888 97.679008,186.818817 119.080650,187.687683 
	C119.737587,190.156204 120.402191,191.985947 123.834084,192.201340 
	C127.698204,192.443863 130.123184,194.767181 130.084976,199.466949 
	C129.897522,222.532471 129.955444,245.600601 130.087326,268.666901 
	C130.097519,270.448273 131.347794,272.222534 132.264832,274.697540 
	C132.330170,275.910553 132.395493,277.123535 132.505646,279.168793 
	C136.807465,275.102814 140.521790,271.601501 144.225937,268.089478 
	C160.469193,252.688858 176.709518,237.285126 193.259872,222.517899 
	C195.960159,223.220108 198.677795,223.862534 201.356491,224.639282 
	C204.906082,225.668610 206.355026,224.149979 206.928223,221.029663 
	C226.373734,240.133682 245.819229,259.237701 266.129944,279.191742 
	C266.129944,276.178650 266.129852,274.557159 266.129944,272.935669 
	C266.131317,250.825943 265.641663,228.700546 266.347229,206.613312 
	C266.685242,196.030869 265.376556,187.045685 256.059418,180.742615 
	C255.944412,180.664810 255.925476,180.445023 255.868164,179.545212 
	C254.825241,178.777863 253.782303,178.010513 252.975815,177.016190 
	C252.975815,177.016190 252.756607,177.259781 252.780334,176.524933 
z"/>
<path fill="#FCFCFC" opacity="1.000000" stroke="none" 
	d="
M208.987305,122.964767 
	C237.967819,122.898781 266.948547,122.780594 295.928345,122.892700 
	C297.722168,122.899635 299.837891,124.379036 301.249573,125.745834 
	C321.454285,145.308548 341.563599,164.969864 362.009521,185.129181 
	C362.130676,186.061325 361.938171,186.471710 361.745667,186.882095 
	C343.184875,186.796356 324.624146,186.695740 306.063263,186.630905 
	C296.115601,186.596146 286.164520,186.479324 276.221680,186.700180 
	C272.756409,186.777145 270.097748,185.891373 267.605225,182.684311 
	C266.531586,181.629974 265.883331,181.060120 265.235077,180.490265 
	C259.763397,174.906433 254.291687,169.322601 248.393738,163.263672 
	C244.639221,159.541794 241.310974,156.295013 237.882645,152.787674 
	C237.096222,151.917892 236.409866,151.308701 235.555069,150.392441 
	C226.586838,141.045181 217.787079,132.004974 208.987305,122.964767 
z"/>
<path fill="#FCFCFC" opacity="1.000000" stroke="none" 
	d="
M118.999931,186.916092 
	C97.679008,186.818817 76.358109,186.716888 55.037148,186.627579 
	C49.756207,186.605453 44.475090,186.624283 37.935154,186.624283 
	C40.843300,183.617599 42.927654,181.414963 45.062752,179.262665 
	C62.891975,161.289810 80.691048,143.286499 98.641113,125.435074 
	C100.079659,124.004433 102.574707,122.901405 104.585129,122.891167 
	C133.082321,122.746002 161.580597,122.816223 190.444534,123.226692 
	C180.198349,134.388550 169.586243,145.158035 158.672394,156.025482 
	C157.565765,157.075928 156.760895,158.028427 155.641174,159.093903 
	C148.803497,165.766098 142.072006,172.134064 135.826691,178.947647 
	C131.187332,184.009140 126.440071,188.107666 118.999931,186.916092 
z"/>
<path fill="#FCFCFC" opacity="1.000000" stroke="none" 
	d="
M192.950897,221.882538 
	C176.709518,237.285126 160.469193,252.688858 144.225937,268.089478 
	C140.521790,271.601501 136.807465,275.102814 132.505646,279.168793 
	C132.395493,277.123535 132.330170,275.910553 132.268326,273.894714 
	C132.280411,252.310806 132.985306,231.497894 132.037415,210.760529 
	C131.465424,198.246262 133.642105,188.010529 144.437454,180.712601 
	C145.085312,180.274628 145.484695,179.469116 146.305603,178.743713 
	C148.034760,177.089630 149.457993,175.526505 151.194824,173.834915 
	C161.198532,163.869293 170.888657,154.032120 180.842972,144.073944 
	C181.601913,143.370834 182.096680,142.788742 182.895203,142.053970 
	C187.540863,137.591843 191.882767,133.282410 196.914185,128.288620 
	C196.914185,158.953293 196.914185,188.385040 196.620728,217.946747 
	C195.496918,219.026031 194.666580,219.975388 193.612350,221.002380 
	C193.095703,221.267441 192.949860,221.534958 192.950897,221.882538 
z"/>
<path fill="#FDFDFD" opacity="1.000000" stroke="none" 
	d="
M247.854385,172.311462 
	C248.600464,173.170242 249.346542,174.029037 250.465973,175.298553 
	C251.478439,176.226120 252.117523,176.742950 252.756607,177.259781 
	C252.756607,177.259781 252.975815,177.016190 252.965866,177.430939 
	C253.924500,178.660965 254.893097,179.476227 255.861679,180.291504 
	C255.925476,180.445023 255.944412,180.664810 256.059418,180.742615 
	C265.376556,187.045685 266.685242,196.030869 266.347229,206.613312 
	C265.641663,228.700546 266.131317,250.825943 266.129944,272.935669 
	C266.129852,274.557159 266.129944,276.178650 266.129944,279.191742 
	C245.819229,259.237701 226.373734,240.133682 206.567780,220.630249 
	C205.381226,218.052139 203.853363,215.879227 203.835373,213.693878 
	C203.605530,185.776489 203.591965,157.857315 203.869919,129.724808 
	C205.107452,130.087723 205.998550,130.664429 206.987701,131.500626 
	C207.414520,131.829849 207.743256,131.899582 208.318481,132.186523 
	C209.325760,133.379028 210.086548,134.354324 211.006531,135.607132 
	C212.748962,137.333572 214.332199,138.782501 215.981354,140.522858 
	C216.663696,141.284225 217.280106,141.754166 217.938843,142.437683 
	C218.095596,142.954300 218.313324,143.127441 218.774963,143.467575 
	C219.903214,144.596695 220.890884,145.428940 221.977905,146.540115 
	C222.958832,147.589462 223.840393,148.359879 224.826355,149.429901 
	C225.574982,150.251617 226.219193,150.773712 226.955292,151.552475 
	C227.601868,152.257278 228.156570,152.705414 228.798920,153.434082 
	C229.489105,154.179291 230.091660,154.643936 230.835754,155.409348 
	C232.287674,156.887039 233.598022,158.063965 234.990417,159.557419 
	C238.129654,162.842682 241.186813,165.811417 244.243988,168.780167 
	C244.556122,169.176086 244.868271,169.572006 245.524170,170.366058 
	C246.530060,171.279968 247.192230,171.795715 247.854385,172.311462 
z"/>
<path fill="#010101" opacity="1.000000" stroke="none" 
	d="
M218.634354,143.170685 
	C218.313324,143.127441 218.095596,142.954300 217.957504,142.088776 
	C217.261047,141.094681 216.588242,140.663055 215.915436,140.231430 
	C214.332199,138.782501 212.748962,137.333572 211.034042,135.256042 
	C210.597870,133.747955 210.293381,132.868484 210.298141,131.987549 
	C211.158737,131.776703 211.710052,131.567307 212.261383,131.357895 
	C211.954620,131.019760 211.647858,130.681610 211.341110,130.343460 
	C210.897507,130.899338 210.453903,131.455215 209.686493,131.982056 
	C208.932465,131.958466 208.502243,131.963882 208.072006,131.969299 
	C207.743256,131.899582 207.414520,131.829849 206.978333,131.149597 
	C205.801819,129.734940 204.732773,128.930817 203.663712,128.126678 
	C203.616959,128.730652 203.570221,129.334625 203.523468,129.938599 
	C203.591965,157.857315 203.605530,185.776489 203.835373,213.693878 
	C203.853363,215.879227 205.381226,218.052139 206.284729,220.476288 
	C206.355026,224.149979 204.906082,225.668610 201.356491,224.639282 
	C198.677795,223.862534 195.960159,223.220108 193.105392,222.200226 
	C192.949860,221.534958 193.095703,221.267441 194.002716,221.009033 
	C195.382721,219.897644 196.148453,218.857224 196.914185,217.816803 
	C196.914185,188.385040 196.914185,158.953293 196.914185,128.288620 
	C191.882767,133.282410 187.540863,137.591843 182.567413,141.947113 
	C181.113251,142.136810 180.290604,142.280701 179.467957,142.424591 
	C179.838242,143.014709 180.208527,143.604828 180.578796,144.194946 
	C170.888657,154.032120 161.198532,163.869293 150.858963,173.781891 
	C149.407104,172.967346 148.604691,172.077362 147.802277,171.187378 
	C147.356049,171.247009 146.909836,171.306641 146.463608,171.366272 
	C146.308975,173.855728 146.154343,176.345184 145.999695,178.834641 
	C145.484695,179.469116 145.085312,180.274628 144.437454,180.712601 
	C133.642105,188.010529 131.465424,198.246262 132.037415,210.760529 
	C132.985306,231.497894 132.280411,252.310806 132.146759,273.546021 
	C131.347794,272.222534 130.097519,270.448273 130.087326,268.666901 
	C129.955444,245.600601 129.897522,222.532471 130.084976,199.466949 
	C130.123184,194.767181 127.698204,192.443863 123.834084,192.201340 
	C120.402191,191.985947 119.737587,190.156204 119.040291,187.301880 
	C126.440071,188.107666 131.187332,184.009140 135.826691,178.947647 
	C142.072006,172.134064 148.803497,165.766098 155.957855,159.223541 
	C160.514389,160.389297 158.387177,157.181458 158.974136,155.927536 
	C169.586243,145.158035 180.198349,134.388550 190.908798,123.301102 
	C192.043365,122.327583 193.099487,121.082314 194.112442,121.116501 
	C199.016251,121.281921 203.908463,121.791023 208.896057,122.571548 
	C217.787079,132.004974 226.586838,141.045181 235.178223,150.534683 
	C233.963989,151.326874 232.958145,151.669769 231.722519,151.863937 
	C230.565582,152.194656 229.638428,152.674088 228.711273,153.153534 
	C228.156570,152.705414 227.601868,152.257278 226.948151,151.188248 
	C226.140076,150.088333 225.431015,149.609314 224.721954,149.130295 
	C223.840393,148.359879 222.958832,147.589462 222.000519,146.133759 
	C220.827316,144.689194 219.730835,143.929932 218.634354,143.170685 
M143.415466,178.483368 
	C143.415466,178.483368 143.522598,178.420197 143.415466,178.483368 
z"/>
<path fill="#191919" opacity="1.000000" stroke="none" 
	d="
M244.449753,168.382462 
	C241.186813,165.811417 238.129654,162.842682 235.176956,159.254089 
	C236.181870,156.772247 237.082291,154.910248 237.982727,153.048248 
	C241.310974,156.295013 244.639221,159.541794 248.096130,163.074158 
	C247.035049,164.901413 245.845291,166.443085 244.449753,168.382462 
z"/>
<path fill="#191919" opacity="1.000000" stroke="none" 
	d="
M255.864929,179.918365 
	C254.893097,179.476227 253.924500,178.660965 252.847656,177.544434 
	C253.782303,178.010513 254.825241,178.777863 255.864929,179.918365 
z"/>
<path fill="#191919" opacity="1.000000" stroke="none" 
	d="
M247.851364,171.939850 
	C247.192230,171.795715 246.530060,171.279968 245.757080,170.463928 
	C246.380295,170.631866 247.114319,171.100052 247.851364,171.939850 
z"/>
<path fill="#191919" opacity="1.000000" stroke="none" 
	d="
M252.768463,176.892365 
	C252.117523,176.742950 251.478439,176.226120 250.725693,175.415543 
	C251.334808,175.589508 252.057571,176.057220 252.768463,176.892365 
z"/>
<path fill="#191919" opacity="1.000000" stroke="none" 
	d="
M265.206726,180.881592 
	C265.883331,181.060120 266.531586,181.629974 267.300720,182.503769 
	C266.673859,182.296112 265.926086,181.784531 265.206726,180.881592 
z"/>
<path fill="#191919" opacity="1.000000" stroke="none" 
	d="
M362.060059,186.948730 
	C361.938171,186.471710 362.130676,186.061325 362.304138,185.307510 
	C362.748596,185.304001 363.212036,185.643906 363.675476,185.983826 
	C363.241791,186.327667 362.808105,186.671509 362.060059,186.948730 
z"/>
<path fill="#000000" opacity="1.000000" stroke="none" 
	d="
M237.882645,152.787674 
	C237.082291,154.910248 236.181870,156.772247 235.094910,158.937576 
	C233.598022,158.063965 232.287674,156.887039 231.145966,155.227539 
	C231.527176,153.834198 231.739731,152.923431 231.952301,152.012665 
	C232.958145,151.669769 233.963989,151.326874 235.346680,150.841736 
	C236.409866,151.308701 237.096222,151.917892 237.882645,152.787674 
z"/>
<path fill="#000000" opacity="1.000000" stroke="none" 
	d="
M158.672394,156.025482 
	C158.387177,157.181458 160.514389,160.389297 156.272705,159.110565 
	C156.760895,158.028427 157.565765,157.075928 158.672394,156.025482 
z"/>
<path fill="#000000" opacity="1.000000" stroke="none" 
	d="
M146.305603,178.743713 
	C146.154343,176.345184 146.308975,173.855728 146.463608,171.366272 
	C146.909836,171.306641 147.356049,171.247009 147.802277,171.187378 
	C148.604691,172.077362 149.407104,172.967346 150.545380,173.910339 
	C149.457993,175.526505 148.034760,177.089630 146.305603,178.743713 
z"/>
<path fill="#191919" opacity="1.000000" stroke="none" 
	d="
M196.620728,217.946747 
	C196.148453,218.857224 195.382721,219.897644 194.226624,220.931396 
	C194.666580,219.975388 195.496918,219.026031 196.620728,217.946747 
z"/>
<path fill="#000000" opacity="1.000000" stroke="none" 
	d="
M180.842972,144.073944 
	C180.208527,143.604828 179.838242,143.014709 179.467957,142.424591 
	C180.290604,142.280701 181.113251,142.136810 182.263672,142.099792 
	C182.096680,142.788742 181.601913,143.370834 180.842972,144.073944 
z"/>
<path fill="#191919" opacity="1.000000" stroke="none" 
	d="
M203.869919,129.724808 
	C203.570221,129.334625 203.616959,128.730652 203.663712,128.126678 
	C204.732773,128.930817 205.801819,129.734940 206.880264,130.890106 
	C205.998550,130.664429 205.107452,130.087723 203.869919,129.724808 
z"/>
<path fill="#191919" opacity="1.000000" stroke="none" 
	d="
M231.722504,151.863937 
	C231.739731,152.923431 231.527176,153.834198 231.004425,154.926788 
	C230.091660,154.643936 229.489105,154.179291 228.798920,153.434082 
	C229.638428,152.674088 230.565582,152.194656 231.722504,151.863937 
z"/>
<path fill="#191919" opacity="1.000000" stroke="none" 
	d="
M208.318481,132.186523 
	C208.502243,131.963882 208.932465,131.958466 209.681274,131.976471 
	C209.999863,131.999924 209.988876,131.989014 209.988876,131.989014 
	C210.293381,132.868484 210.597870,133.747955 210.874847,134.978516 
	C210.086548,134.354324 209.325760,133.379028 208.318481,132.186523 
z"/>
<path fill="#191919" opacity="1.000000" stroke="none" 
	d="
M218.774963,143.467575 
	C219.730835,143.929932 220.827316,144.689194 221.901169,145.854797 
	C220.890884,145.428940 219.903214,144.596695 218.774963,143.467575 
z"/>
<path fill="#191919" opacity="1.000000" stroke="none" 
	d="
M215.981354,140.522858 
	C216.588242,140.663055 217.261047,141.094681 217.915192,141.875214 
	C217.280106,141.754166 216.663696,141.284225 215.981354,140.522858 
z"/>
<path fill="#191919" opacity="1.000000" stroke="none" 
	d="
M224.826355,149.429901 
	C225.431015,149.609314 226.140076,150.088333 226.856262,150.931580 
	C226.219193,150.773712 225.574982,150.251617 224.826355,149.429901 
z"/>
<path fill="#191919" opacity="1.000000" stroke="none" 
	d="
M210.005066,132.005493 
	C210.453903,131.455215 210.897507,130.899338 211.341110,130.343460 
	C211.647858,130.681610 211.954620,131.019760 212.261383,131.357895 
	C211.710052,131.567307 211.158737,131.776703 210.298141,131.987549 
	C209.988876,131.989014 209.999863,131.999924 210.005066,132.005493 
z"/>
<path fill="#000000" opacity="1.000000" stroke="none" 
	d="
M143.469025,178.451782 
	C143.522598,178.420197 143.415466,178.483368 143.469025,178.451782 
z"/>
</svg>