<svg version="1.1" id="Layer_1" xmlns="http://www.w3.org/2000/svg" xmlns:xlink="http://www.w3.org/1999/xlink" x="0px" y="0px"
	 width="100%" viewBox="0 0 1144 324" enable-background="new 0 0 1144 324" xml:space="preserve">
<path fill="#000000" opacity="1.000000" stroke="none" 
	d="
M931.000000,325.000000 
	C621.000000,325.000000 311.000000,325.000000 1.000000,325.000000 
	C1.000000,296.241058 1.000000,267.586578 1.468657,238.466034 
	C13.539829,238.000000 25.142344,238.000000 37.138008,238.000000 
	C37.138008,203.729797 37.138008,169.991943 37.138008,136.271790 
	C75.275566,136.271790 113.011223,136.271790 151.146637,136.271790 
	C151.146637,170.279480 151.146637,204.017365 151.146637,237.721466 
	C163.621216,237.721466 175.692688,237.721466 187.723831,237.721466 
	C187.723831,159.376312 187.723831,81.309998 187.723831,3.278965 
	C175.373932,3.278965 163.302246,3.278965 150.835587,3.278965 
	C150.835587,37.628082 150.835587,71.699409 150.835587,105.715904 
	C112.699272,105.715904 74.963486,105.715904 36.828697,105.715904 
	C36.828697,71.362381 36.828697,37.291164 36.828697,3.000000 
	C24.619438,3.000000 12.809719,3.000000 1.000000,3.000000 
	C1.332797,2.333333 1.546886,1.216279 2.022366,1.090956 
	C3.112665,0.803586 4.330476,1.000000 5.496517,1.000000 
	C272.020294,1.000000 538.544067,1.000000 805.826416,1.294626 
	C805.339783,2.596638 804.209229,3.810704 802.829651,4.575904 
	C796.612244,8.024429 794.839355,13.962621 794.036316,20.318293 
	C792.515442,32.356014 803.798828,44.444298 817.306641,43.042336 
	C826.161377,42.123318 835.013245,38.644505 837.679749,23.502377 
	C838.707275,17.667725 835.809265,8.239587 827.230225,3.628861 
	C826.287964,3.122474 825.734009,1.893728 825.000000,1.000006 
	C931.554382,1.000000 1038.108765,1.000000 1145.000000,1.000000 
	C1145.000000,31.021799 1145.000000,61.044857 1144.677979,91.832359 
	C1140.892578,86.891350 1138.043335,80.682228 1133.853394,75.572464 
	C1119.823242,58.462494 1090.160034,56.059818 1072.290649,69.027916 
	C1056.992188,80.130280 1049.974487,100.359528 1055.773438,119.286926 
	C1063.907227,145.835602 1086.115356,154.081650 1108.760376,150.639145 
	C1125.022583,148.166962 1136.522217,137.565765 1142.671387,121.855942 
	C1143.097534,120.766937 1144.207764,119.945724 1145.000000,119.000000 
	C1145.000000,187.589493 1145.000000,256.178986 1145.000000,325.000000 
	C1085.644287,325.000000 1026.288208,325.000000 966.161743,324.645813 
	C965.889160,323.875122 966.350403,323.150940 966.890137,323.086731 
	C985.637146,320.856537 1001.595825,313.151825 1014.388489,299.121826 
	C1027.338623,284.919159 1034.584106,267.893311 1034.774170,249.028152 
	C1035.381836,188.719894 1035.000000,128.401672 1035.000000,68.087288 
	C1035.000000,66.481682 1035.000000,64.876083 1035.000000,63.262115 
	C1022.078125,63.262115 1009.675842,63.262115 996.854919,63.262115 
	C996.854919,70.882309 996.854919,78.249695 996.854919,85.829735 
	C991.840942,81.399681 987.599670,76.640518 982.447266,73.277122 
	C961.390137,59.531452 938.023438,57.580162 914.449646,63.520016 
	C892.072144,69.158440 875.583130,83.416092 864.958496,104.193192 
	C853.428467,126.740547 852.479431,150.594696 857.198608,174.691528 
	C861.431641,196.306046 872.692261,214.363708 890.835388,227.073944 
	C907.033875,238.421890 925.204163,242.939453 945.402405,241.261185 
	C966.004211,239.549408 982.010742,230.223236 996.451782,216.258118 
	C996.963989,225.935883 997.065613,235.468536 997.090393,245.433990 
	C996.675537,248.440735 996.366333,251.018799 995.994873,253.587875 
	C993.854492,268.392487 986.455872,279.843719 973.257996,286.857422 
	C961.455933,293.129364 948.699768,293.763275 935.710815,291.009827 
	C918.967896,287.460632 906.567993,278.643585 900.403564,262.167450 
	C889.269226,262.166473 878.134949,262.166473 866.603760,262.089417 
	C865.242065,263.592773 863.259399,265.351044 863.498840,266.720978 
	C864.285645,271.223328 865.878479,275.584808 867.177124,280.360199 
	C870.964233,286.484344 874.101746,292.811981 878.627014,297.906982 
	C891.976807,312.937500 909.455750,320.225922 929.046936,323.073608 
	C929.775940,323.179596 930.352478,324.334137 931.000000,325.000000 
M572.466064,238.000031 
	C575.572388,238.000031 578.678711,238.000031 581.752441,238.000031 
	C581.752441,159.397339 581.752441,81.349091 581.752441,3.249420 
	C569.101990,3.249420 556.700867,3.249420 543.896118,3.249420 
	C543.896118,30.521778 543.896118,57.546906 543.896118,83.681686 
	C536.381104,78.701973 529.171997,72.788383 521.028625,68.766762 
	C504.338287,60.524220 486.630646,58.228981 468.113586,61.922550 
	C443.876831,66.757019 425.548828,79.724838 413.530731,101.118942 
	C403.614563,118.771370 400.071503,137.855103 401.842590,158.193192 
	C403.182892,173.584778 406.907776,187.940033 414.699341,201.308350 
	C424.407837,217.965668 438.275909,229.449738 456.346558,236.067780 
	C469.491028,240.881683 482.829651,242.001450 496.726654,240.135162 
	C508.993500,238.487793 520.223022,234.709351 530.115173,227.334534 
	C534.934753,223.741425 539.369934,219.632751 544.194092,215.576736 
	C544.194092,222.964920 544.194092,230.370453 544.194092,238.000031 
	C553.532104,238.000031 562.504456,238.000031 572.466064,238.000031 
M363.564087,89.041481 
	C354.352295,78.574333 343.330414,70.692268 330.160400,66.004845 
	C313.601959,60.111423 296.714081,58.823303 279.338654,61.928558 
	C256.254944,66.053970 237.628983,76.902779 224.724564,96.758377 
	C216.680496,109.135551 212.437576,122.721931 210.812241,137.480820 
	C209.191727,152.195679 210.022110,166.511429 214.042313,180.647675 
	C220.543976,203.509415 234.382355,220.761795 255.419479,231.644989 
	C272.969116,240.723999 291.847870,242.659409 311.438873,240.133728 
	C323.999237,238.514450 335.591217,234.696289 346.177338,227.943344 
	C361.803497,217.975327 371.906464,203.704453 378.211700,186.000168 
	C365.397644,186.000168 353.077240,185.918274 340.761383,186.116714 
	C339.411255,186.138458 337.859222,187.556763 336.791229,188.693939 
	C332.694763,193.055679 329.249451,198.174942 324.655304,201.891876 
	C315.913116,208.964844 305.300690,210.481323 294.324951,210.005753 
	C278.628723,209.325638 265.667664,202.908005 257.216492,189.756226 
	C252.592804,182.560806 250.276642,173.882599 246.553223,164.998138 
	C250.118317,164.998138 251.934769,164.998138 253.751221,164.998138 
	C292.571289,164.998138 331.391388,165.012894 370.211426,164.973770 
	C373.829132,164.970123 378.165619,165.740143 380.805176,164.037552 
	C382.498230,162.945465 381.345703,157.896667 382.066376,154.758759 
	C384.415466,144.530197 381.925934,134.627899 380.243774,124.708900 
	C378.019470,111.593063 371.827393,100.192802 363.564087,89.041481 
M736.080200,64.446953 
	C720.228638,110.189903 704.377075,155.932861 688.164368,202.717987 
	C671.728088,155.533249 655.628723,109.315735 639.524719,63.084850 
	C626.043396,63.084850 612.740356,63.084850 598.986084,63.084850 
	C602.043823,70.921295 605.099060,78.503021 607.969666,86.154022 
	C616.798584,109.686340 625.478516,133.274811 634.363770,156.785751 
	C644.155212,182.694687 654.153503,208.525497 663.922913,234.442688 
	C664.840881,236.877991 665.691528,238.104294 668.551514,238.068451 
	C681.212158,237.909805 693.878662,238.126266 706.535339,237.853256 
	C708.280212,237.815613 710.824219,236.187408 711.547180,234.624374 
	C713.756470,229.848282 715.171570,224.711899 717.049072,219.774017 
	C725.532288,197.461578 734.035889,175.156738 742.594360,152.873047 
	C752.013611,128.348129 761.531433,103.861076 770.933899,79.329750 
	C772.923950,74.137611 774.600342,68.825264 776.617798,63.000801 
	C763.668091,63.000801 751.528259,62.982727 739.388672,63.037811 
	C738.493225,63.041874 737.600159,63.573009 736.080200,64.446953 
M797.000000,66.653008 
	C797.000000,123.730293 797.000000,180.807571 797.000000,237.653885 
	C810.089722,237.653885 822.496460,237.653885 834.654907,237.653885 
	C834.654907,179.238297 834.654907,121.169273 834.654907,63.000141 
	C822.985596,63.000141 811.659424,63.020199 800.333374,62.980911 
	C798.387573,62.974163 796.514221,62.803654 797.000000,66.653008 
z"/>
<path fill="#FAFAFA" opacity="1.000000" stroke="none" 
	d="
M996.041138,216.113022 
	C982.010742,230.223236 966.004211,239.549408 945.402405,241.261185 
	C925.204163,242.939453 907.033875,238.421890 890.835388,227.073944 
	C872.692261,214.363708 861.431641,196.306046 857.198608,174.691528 
	C852.479431,150.594696 853.428467,126.740547 864.958496,104.193192 
	C875.583130,83.416092 892.072144,69.158440 914.449646,63.520016 
	C938.023438,57.580162 961.390137,59.531452 982.447266,73.277122 
	C987.599670,76.640518 991.840942,81.399681 996.854919,85.829735 
	C996.854919,78.249695 996.854919,70.882309 996.854919,63.262115 
	C1009.675842,63.262115 1022.078125,63.262115 1035.000000,63.262115 
	C1035.000000,64.876083 1035.000000,66.481682 1035.000000,68.087288 
	C1035.000000,128.401672 1035.381836,188.719894 1034.774170,249.028152 
	C1034.584106,267.893311 1027.338623,284.919159 1014.388489,299.121826 
	C1001.595825,313.151825 985.637146,320.856537 966.890137,323.086731 
	C966.350403,323.150940 965.889160,323.875122 965.695679,324.645813 
	C954.645752,325.000000 943.291565,325.000000 931.468628,325.000000 
	C930.352478,324.334137 929.775940,323.179596 929.046936,323.073608 
	C909.455750,320.225922 891.976807,312.937500 878.627014,297.906982 
	C874.101746,292.811981 870.964233,286.484344 867.537964,280.266357 
	C867.928589,277.556396 868.119629,275.291351 867.985962,273.045654 
	C867.769714,269.412567 867.340149,265.792206 867.000610,262.166473 
	C878.134949,262.166473 889.269226,262.166473 900.403564,262.167450 
	C906.567993,278.643585 918.967896,287.460632 935.710815,291.009827 
	C948.699768,293.763275 961.455933,293.129364 973.257996,286.857422 
	C986.455872,279.843719 993.854492,268.392487 995.994873,253.587875 
	C996.366333,251.018799 996.675537,248.440735 997.470764,245.367401 
	C998.573181,244.182281 999.768982,243.505432 999.780212,242.809540 
	C999.926392,233.725113 999.944092,224.637619 999.850464,215.552353 
	C999.843018,214.828873 998.773315,214.116333 998.197266,213.398712 
	C997.478577,214.303497 996.759888,215.208267 996.041138,216.113022 
M911.514954,195.009308 
	C923.124329,205.647369 936.331299,210.816025 952.375977,208.087708 
	C969.808533,205.123413 982.420044,195.978210 990.266541,180.258377 
	C996.545349,167.679367 998.099304,154.473602 996.133911,140.505508 
	C994.114990,126.157608 988.438110,114.148643 977.289429,104.744240 
	C964.291931,93.780106 949.330444,90.559433 933.083984,94.160156 
	C923.161499,96.359291 914.068237,101.381042 907.567444,109.188774 
	C895.862000,123.247475 891.525940,139.611832 893.843140,158.052673 
	C895.632019,172.289185 900.540039,184.587402 911.514954,195.009308 
z"/>
<path fill="#FAFAFA" opacity="1.000000" stroke="none" 
	d="
M1.000000,3.468657 
	C12.809719,3.000000 24.619438,3.000000 36.828697,3.000000 
	C36.828697,37.291164 36.828697,71.362381 36.828697,105.715904 
	C74.963486,105.715904 112.699272,105.715904 150.835587,105.715904 
	C150.835587,71.699409 150.835587,37.628082 150.835587,3.278965 
	C163.302246,3.278965 175.373932,3.278965 187.723831,3.278965 
	C187.723831,81.309998 187.723831,159.376312 187.723831,237.721466 
	C175.692688,237.721466 163.621216,237.721466 151.146637,237.721466 
	C151.146637,204.017365 151.146637,170.279480 151.146637,136.271790 
	C113.011223,136.271790 75.275566,136.271790 37.138008,136.271790 
	C37.138008,169.991943 37.138008,203.729797 37.138008,238.000000 
	C25.142344,238.000000 13.539829,238.000000 1.468657,238.000000 
	C1.000000,159.979111 1.000000,81.958206 1.000000,3.468657 
z"/>
<path fill="#FAFAFA" opacity="1.000000" stroke="none" 
	d="
M1145.000000,118.531342 
	C1144.207764,119.945724 1143.097534,120.766937 1142.671387,121.855942 
	C1136.522217,137.565765 1125.022583,148.166962 1108.760376,150.639145 
	C1086.115356,154.081650 1063.907227,145.835602 1055.773438,119.286926 
	C1049.974487,100.359528 1056.992188,80.130280 1072.290649,69.027916 
	C1090.160034,56.059818 1119.823242,58.462494 1133.853394,75.572464 
	C1138.043335,80.682228 1140.892578,86.891350 1144.677979,92.298401 
	C1145.000000,100.687561 1145.000000,109.375130 1145.000000,118.531342 
M1122.571655,75.958511 
	C1114.147095,68.361435 1103.770874,66.223244 1093.313721,68.229263 
	C1071.831421,72.350288 1058.738892,90.071022 1062.192139,112.629501 
	C1065.979858,137.372635 1094.434692,153.116013 1116.944458,139.026810 
	C1120.298340,136.927536 1124.786377,135.887848 1127.078857,133.021667 
	C1130.500122,128.744171 1133.110840,123.507126 1134.880127,118.276993 
	C1140.465942,101.762924 1136.073242,87.670166 1122.571655,75.958511 
z"/>
<path fill="#FAFAFA" opacity="1.000000" stroke="none" 
	d="
M824.531738,1.000006 
	C825.734009,1.893728 826.287964,3.122474 827.230225,3.628861 
	C835.809265,8.239587 838.707275,17.667725 837.679749,23.502377 
	C835.013245,38.644505 826.161377,42.123318 817.306641,43.042336 
	C803.798828,44.444298 792.515442,32.356014 794.036316,20.318293 
	C794.839355,13.962621 796.612244,8.024429 802.829651,4.575904 
	C804.209229,3.810704 805.339783,2.596638 806.292480,1.294626 
	C812.021179,1.000000 818.042297,1.000000 824.531738,1.000006 
z"/>
<path fill="#FAFAFA" opacity="1.000000" stroke="none" 
	d="
M571.971436,238.000031 
	C562.504456,238.000031 553.532104,238.000031 544.194092,238.000031 
	C544.194092,230.370453 544.194092,222.964920 544.194092,215.576736 
	C539.369934,219.632751 534.934753,223.741425 530.115173,227.334534 
	C520.223022,234.709351 508.993500,238.487793 496.726654,240.135162 
	C482.829651,242.001450 469.491028,240.881683 456.346558,236.067780 
	C438.275909,229.449738 424.407837,217.965668 414.699341,201.308350 
	C406.907776,187.940033 403.182892,173.584778 401.842590,158.193192 
	C400.071503,137.855103 403.614563,118.771370 413.530731,101.118942 
	C425.548828,79.724838 443.876831,66.757019 468.113586,61.922550 
	C486.630646,58.228981 504.338287,60.524220 521.028625,68.766762 
	C529.171997,72.788383 536.381104,78.701973 543.896118,83.681686 
	C543.896118,57.546906 543.896118,30.521778 543.896118,3.249420 
	C556.700867,3.249420 569.101990,3.249420 581.752441,3.249420 
	C581.752441,81.349091 581.752441,159.397339 581.752441,238.000031 
	C578.678711,238.000031 575.572388,238.000031 571.971436,238.000031 
M534.516968,184.994690 
	C535.009949,184.346863 535.611877,183.755325 535.979919,183.042938 
	C544.118530,167.288773 546.087158,150.780563 541.997925,133.532028 
	C535.952087,108.030563 514.188049,90.367401 487.721954,92.965607 
	C468.986664,94.804886 455.249115,103.984528 446.837250,120.700661 
	C439.824707,134.636032 439.050842,149.222183 441.801025,164.641068 
	C446.185516,189.222778 469.956177,212.568909 499.001678,208.028610 
	C514.041626,205.677612 525.801025,198.428635 534.516968,184.994690 
z"/>
<path fill="#FAFAFA" opacity="1.000000" stroke="none" 
	d="
M363.807007,89.309677 
	C371.827393,100.192802 378.019470,111.593063 380.243774,124.708900 
	C381.925934,134.627899 384.415466,144.530197 382.066376,154.758759 
	C381.345703,157.896667 382.498230,162.945465 380.805176,164.037552 
	C378.165619,165.740143 373.829132,164.970123 370.211426,164.973770 
	C331.391388,165.012894 292.571289,164.998138 253.751221,164.998138 
	C251.934769,164.998138 250.118317,164.998138 246.553223,164.998138 
	C250.276642,173.882599 252.592804,182.560806 257.216492,189.756226 
	C265.667664,202.908005 278.628723,209.325638 294.324951,210.005753 
	C305.300690,210.481323 315.913116,208.964844 324.655304,201.891876 
	C329.249451,198.174942 332.694763,193.055679 336.791229,188.693939 
	C337.859222,187.556763 339.411255,186.138458 340.761383,186.116714 
	C353.077240,185.918274 365.397644,186.000168 378.211700,186.000168 
	C371.906464,203.704453 361.803497,217.975327 346.177338,227.943344 
	C335.591217,234.696289 323.999237,238.514450 311.438873,240.133728 
	C291.847870,242.659409 272.969116,240.723999 255.419479,231.644989 
	C234.382355,220.761795 220.543976,203.509415 214.042313,180.647675 
	C210.022110,166.511429 209.191727,152.195679 210.812241,137.480820 
	C212.437576,122.721931 216.680496,109.135551 224.724564,96.758377 
	C237.628983,76.902779 256.254944,66.053970 279.338654,61.928558 
	C296.714081,58.823303 313.601959,60.111423 330.160400,66.004845 
	C343.330414,70.692268 354.352295,78.574333 363.807007,89.309677 
M319.521454,96.952972 
	C303.674530,89.207367 287.531860,89.184013 272.283539,97.540611 
	C258.101501,105.312820 250.861023,118.442688 248.699875,134.728516 
	C280.795624,134.728516 312.355988,134.728516 344.088623,134.728516 
	C342.829102,117.696686 335.417816,104.927826 319.521454,96.952972 
z"/>
<path fill="#FAFAFA" opacity="1.000000" stroke="none" 
	d="
M736.393066,64.153030 
	C737.600159,63.573009 738.493225,63.041874 739.388672,63.037811 
	C751.528259,62.982727 763.668091,63.000801 776.617798,63.000801 
	C774.600342,68.825264 772.923950,74.137611 770.933899,79.329750 
	C761.531433,103.861076 752.013611,128.348129 742.594360,152.873047 
	C734.035889,175.156738 725.532288,197.461578 717.049072,219.774017 
	C715.171570,224.711899 713.756470,229.848282 711.547180,234.624374 
	C710.824219,236.187408 708.280212,237.815613 706.535339,237.853256 
	C693.878662,238.126266 681.212158,237.909805 668.551514,238.068451 
	C665.691528,238.104294 664.840881,236.877991 663.922913,234.442688 
	C654.153503,208.525497 644.155212,182.694687 634.363770,156.785751 
	C625.478516,133.274811 616.798584,109.686340 607.969666,86.154022 
	C605.099060,78.503021 602.043823,70.921295 598.986084,63.084850 
	C612.740356,63.084850 626.043396,63.084850 639.524719,63.084850 
	C655.628723,109.315735 671.728088,155.533249 688.164368,202.717987 
	C704.377075,155.932861 720.228638,110.189903 736.393066,64.153030 
z"/>
<path fill="#FAFAFA" opacity="1.000000" stroke="none" 
	d="
M797.000122,66.167656 
	C796.514221,62.803654 798.387573,62.974163 800.333374,62.980911 
	C811.659424,63.020199 822.985596,63.000141 834.654907,63.000141 
	C834.654907,121.169273 834.654907,179.238297 834.654907,237.653885 
	C822.496460,237.653885 810.089722,237.653885 797.000000,237.653885 
	C797.000000,180.807571 797.000000,123.730293 797.000122,66.167656 
z"/>
<path fill="#F9F9F9" opacity="1.000000" stroke="none" 
	d="
M996.451782,216.258148 
	C996.759888,215.208267 997.478577,214.303497 998.197266,213.398712 
	C998.773315,214.116333 999.843018,214.828873 999.850464,215.552353 
	C999.944092,224.637619 999.926392,233.725113 999.780212,242.809540 
	C999.768982,243.505432 998.573181,244.182281 997.547668,244.934570 
	C997.065613,235.468536 996.963989,225.935883 996.451782,216.258148 
z"/>
<path fill="#FAFAFA" opacity="1.000000" stroke="none" 
	d="
M866.603760,262.089417 
	C867.340149,265.792206 867.769714,269.412567 867.985962,273.045654 
	C868.119629,275.291351 867.928589,277.556396 867.522461,279.906586 
	C865.878479,275.584808 864.285645,271.223328 863.498840,266.720978 
	C863.259399,265.351044 865.242065,263.592773 866.603760,262.089417 
z"/>
<path fill="#000000" opacity="1.000000" stroke="none" 
	d="
M911.262695,194.757965 
	C900.540039,184.587402 895.632019,172.289185 893.843140,158.052673 
	C891.525940,139.611832 895.862000,123.247475 907.567444,109.188774 
	C914.068237,101.381042 923.161499,96.359291 933.083984,94.160156 
	C949.330444,90.559433 964.291931,93.780106 977.289429,104.744240 
	C988.438110,114.148643 994.114990,126.157608 996.133911,140.505508 
	C998.099304,154.473602 996.545349,167.679367 990.266541,180.258377 
	C982.420044,195.978210 969.808533,205.123413 952.375977,208.087708 
	C936.331299,210.816025 923.124329,205.647369 911.262695,194.757965 
z"/>
<path fill="#000000" opacity="1.000000" stroke="none" 
	d="
M1122.937988,75.992218 
	C1136.073242,87.670166 1140.465942,101.762924 1134.880127,118.276993 
	C1133.110840,123.507126 1130.500122,128.744171 1127.078857,133.021667 
	C1124.786377,135.887848 1120.298340,136.927536 1116.944458,139.026810 
	C1094.434692,153.116013 1065.979858,137.372635 1062.192139,112.629501 
	C1058.738892,90.071022 1071.831421,72.350288 1093.313721,68.229263 
	C1103.770874,66.223244 1114.147095,68.361435 1122.937988,75.992218 
M1080.637085,81.006638 
	C1080.099731,81.462471 1079.095093,81.915947 1079.092773,82.374481 
	C1079.011841,98.484070 1079.025146,114.594139 1079.025146,130.762573 
	C1081.883667,130.762573 1084.287354,130.762573 1087.085693,130.762573 
	C1087.085693,123.455269 1087.085693,116.373970 1087.085693,109.247360 
	C1095.560181,109.247360 1103.629639,109.247360 1112.094116,109.247360 
	C1112.094116,116.569016 1112.094116,123.653511 1112.094116,130.752045 
	C1114.902588,130.752045 1117.306641,130.752045 1119.754883,130.752045 
	C1119.754883,114.094116 1119.754883,97.684883 1119.754883,81.248230 
	C1117.098999,81.248230 1114.694824,81.248230 1111.896240,81.248230 
	C1111.896240,88.566185 1111.896240,95.646637 1111.896240,102.742683 
	C1103.419312,102.742683 1095.349365,102.742683 1086.887695,102.742683 
	C1086.887695,95.411079 1086.887695,88.328453 1086.887695,81.001648 
	C1084.856567,81.001648 1083.219116,81.001648 1080.637085,81.006638 
z"/>
<path fill="#000000" opacity="1.000000" stroke="none" 
	d="
M534.278870,185.285233 
	C525.801025,198.428635 514.041626,205.677612 499.001678,208.028610 
	C469.956177,212.568909 446.185516,189.222778 441.801025,164.641068 
	C439.050842,149.222183 439.824707,134.636032 446.837250,120.700661 
	C455.249115,103.984528 468.986664,94.804886 487.721954,92.965607 
	C514.188049,90.367401 535.952087,108.030563 541.997925,133.532028 
	C546.087158,150.780563 544.118530,167.288773 535.979919,183.042938 
	C535.611877,183.755325 535.009949,184.346863 534.278870,185.285233 
z"/>
<path fill="#000000" opacity="1.000000" stroke="none" 
	d="
M319.907349,96.989929 
	C335.417816,104.927826 342.829102,117.696686 344.088623,134.728516 
	C312.355988,134.728516 280.795624,134.728516 248.699875,134.728516 
	C250.861023,118.442688 258.101501,105.312820 272.283539,97.540611 
	C287.531860,89.184013 303.674530,89.207367 319.907349,96.989929 
z"/>
<path fill="#FAFAFA" opacity="1.000000" stroke="none" 
	d="
M1081.109375,81.004143 
	C1083.219116,81.001648 1084.856567,81.001648 1086.887695,81.001648 
	C1086.887695,88.328453 1086.887695,95.411079 1086.887695,102.742683 
	C1095.349365,102.742683 1103.419312,102.742683 1111.896240,102.742683 
	C1111.896240,95.646637 1111.896240,88.566185 1111.896240,81.248230 
	C1114.694824,81.248230 1117.098999,81.248230 1119.754883,81.248230 
	C1119.754883,97.684883 1119.754883,114.094116 1119.754883,130.752045 
	C1117.306641,130.752045 1114.902588,130.752045 1112.094116,130.752045 
	C1112.094116,123.653511 1112.094116,116.569016 1112.094116,109.247360 
	C1103.629639,109.247360 1095.560181,109.247360 1087.085693,109.247360 
	C1087.085693,116.373970 1087.085693,123.455269 1087.085693,130.762573 
	C1084.287354,130.762573 1081.883667,130.762573 1079.025146,130.762573 
	C1079.025146,114.594139 1079.011841,98.484070 1079.092773,82.374481 
	C1079.095093,81.915947 1080.099731,81.462471 1081.109375,81.004143 
z"/>
</svg>