<?xml version="1.0" encoding="utf-8"?>
<!-- Generator: Adobe Illustrator 27.9.0, SVG Export Plug-In . SVG Version: 6.00 Build 0)  -->
<svg version="1.1" id="Layer_1" xmlns="http://www.w3.org/2000/svg" xmlns:xlink="http://www.w3.org/1999/xlink" x="0px" y="0px"
	 viewBox="0 0 230.4 88.4" style="enable-background:new 0 0 230.4 88.4;" xml:space="preserve">
<style type="text/css">
	.st0{fill:url(#SVGID_1_);}
	.st1{fill:#FFFFFF;}
</style>
<g>
	<g>
		
			<linearGradient id="SVGID_1_" gradientUnits="userSpaceOnUse" x1="3253.353" y1="23.95" x2="3291.0918" y2="23.95" gradientTransform="matrix(-1 0 0 -1 3293.7529 90)">
			<stop  offset="0" style="stop-color:#FFFFFF"/>
			<stop  offset="1" style="stop-color:#E6E7E8"/>
		</linearGradient>
		<polygon class="st0" points="40.4,86.8 2.7,86.8 2.7,45.3 		"/>
		<circle class="st1" cx="35.2" cy="55.5" r="11.3"/>
		<polygon class="st1" points="40.4,1.5 2.7,45.3 2.7,86.8 		"/>
	</g>
	<g>
		<path class="st1" d="M77.9,86.7H67.2V34.8H78L77.9,86.7L77.9,86.7z"/>
		<path class="st1" d="M126.1,40.3c1.6,2.2,2.4,4.9,2.4,7.9c0,3.2-0.8,5.7-2.4,7.6c-0.9,1.1-2.2,2.1-4,3c2.7,1,4.7,2.5,6,4.6
			c1.3,2.1,2,4.6,2,7.6c0,3.1-0.8,5.8-2.3,8.3c-1,1.6-2.2,3-3.7,4.1c-1.7,1.3-3.6,2.1-5.9,2.6s-4.7,0.7-7.3,0.7H87.5V34.8h25.1
			C119,34.8,123.4,36.7,126.1,40.3z M97.9,43.8v11.5h12.6c2.3,0,4.1-0.4,5.5-1.3c1.4-0.9,2.1-2.4,2.1-4.6c0-2.4-0.9-4-2.8-4.8
			c-1.6-0.5-3.7-0.8-6.1-0.8C109.2,43.8,97.9,43.8,97.9,43.8z M97.9,63.8v13.8h12.6c2.3,0,4-0.3,5.3-0.9c2.3-1.1,3.4-3.3,3.4-6.5
			c0-2.7-1.1-4.6-3.3-5.6c-1.2-0.6-3-0.9-5.2-0.9H97.9V63.8z"/>
		<path class="st1" d="M136.8,34.8h10.7v21.4l20.1-21.4h14l-21.3,21.4l22.4,30.6h-14l-16-22.7l-5.2,5.3v17.4h-10.7V34.8z"/>
		<path class="st1" d="M219.6,36.1c1.9,0.8,3.5,2,4.9,3.6c1.1,1.3,2,2.8,2.6,4.4c0.6,1.6,1,3.4,1,5.5c0,2.5-0.6,4.9-1.9,7.3
			c-1.2,2.4-3.3,4.1-6.2,5.1c2.4,1,4.1,2.3,5.1,4.1s1.5,4.5,1.5,8.1v3.5c0,2.4,0.1,4,0.3,4.8c0.3,1.3,1,2.3,2,3v1.3h-12
			c-0.3-1.2-0.6-2.1-0.7-2.8c-0.3-1.5-0.4-2.9-0.5-4.5l-0.1-4.8c0-3.3-0.6-5.5-1.7-6.6c-1.1-1.1-3.2-1.7-6.2-1.7h-10.6v20.4h-10.6
			v-52h24.8C215,34.8,217.7,35.3,219.6,36.1z M197.2,43.8v14h11.7c2.3,0,4.1-0.3,5.2-0.8c2.1-1,3.1-2.9,3.1-5.8c0-3.1-1-5.3-3-6.3
			c-1.1-0.6-2.8-0.9-5-0.9h-12V43.8z"/>
	</g>
</g>
</svg>
