<?xml version="1.0" encoding="utf-8"?><svg xmlns="http://www.w3.org/2000/svg" xmlns:xlink="http://www.w3.org/1999/xlink"><symbol viewBox="-48.6 -15.95 421.2 95.7" id="dropbox" xmlns="http://www.w3.org/2000/svg"><path d="M37.6 12 18.8 24l18.8 12-18.8 12L0 35.9l18.8-12L0 12 18.8 0zM18.7 51.8l18.8-12 18.8 12-18.8 12zm18.9-15.9 18.8-12L37.6 12 56.3 0l18.8 12-18.8 12 18.8 12-18.8 12zM89.8 12H105c9.7 0 17.7 5.6 17.7 18.4v2.7c0 12.9-7.5 18.7-17.4 18.7H89.8zm8.5 7.2v25.3h6.5c5.5 0 9.2-3.6 9.2-11.6v-2.1c0-8-3.9-11.6-9.5-11.6zm28.9.4h6.8l1.1 7.5c1.3-5.1 4.6-7.8 10.6-7.8h2.1v8.6h-3.5c-6.9 0-8.6 2.4-8.6 9.2v14.8h-8.4V19.6zm22.3 16.8v-.9c0-10.8 6.9-16.7 16.3-16.7 9.6 0 16.3 5.9 16.3 16.7v.9c0 10.6-6.5 16.3-16.3 16.3-10.4-.1-16.3-5.7-16.3-16.3zm24-.1v-.8c0-6-3-9.6-7.8-9.6-4.7 0-7.8 3.3-7.8 9.6v.8c0 5.8 3 9.1 7.8 9.1 4.8-.1 7.8-3.3 7.8-9.1zm13-16.7h7l.8 6.1c1.7-4.1 5.3-6.9 10.6-6.9 8.2 0 13.6 5.9 13.6 16.8v.9c0 10.6-6 16.2-13.6 16.2-5.1 0-8.6-2.3-10.3-6V63h-8.2zM210 36.3v-.7c0-6.4-3.3-9.6-7.7-9.6-4.7 0-7.8 3.6-7.8 9.6v.6c0 5.7 3 9.3 7.7 9.3 4.8-.1 7.8-3.2 7.8-9.2zm20.9 9.6-.7 5.9H223v-43h8.2v16.5c1.8-4.2 5.4-6.5 10.5-6.5 7.7.1 13.4 5.4 13.4 16.1v1c0 10.7-5.4 16.8-13.6 16.8-5.4-.1-8.9-2.6-10.6-6.8zm15.6-10v-.8c0-5.9-3.2-9.2-7.7-9.2-4.6 0-7.8 3.7-7.8 9.3v.7c0 6 3.1 9.5 7.7 9.5 4.9 0 7.8-3.1 7.8-9.5zm12.2.5v-.9c0-10.8 6.9-16.7 16.3-16.7 9.6 0 16.3 5.9 16.3 16.7v.9c0 10.6-6.6 16.3-16.3 16.3-10.4-.1-16.3-5.7-16.3-16.3zm24.1-.1v-.8c0-6-3-9.6-7.8-9.6-4.7 0-7.8 3.3-7.8 9.6v.8c0 5.8 3 9.1 7.8 9.1 4.8-.1 7.8-3.3 7.8-9.1zm19.5-1.2L291 19.6h9.7l6.5 9.7 6.6-9.7h9.6L311.9 35 324 51.8h-9.5l-7.4-10.7-7.2 10.7H290z" fill="#fff"/></symbol><symbol viewBox="0 0 400 400" xml:space="preserve" id="flir" xmlns="http://www.w3.org/2000/svg"><path d="M192 401H1.03V1.092h399.815V401H192m60.78-224.475a46.061 46.061 0 0 0-2.687-1.637c-.746-.859-1.493-1.718-2.245-3.32-.734-.468-1.468-.936-2.668-1.6-.312-.396-.624-.792-.524-1.983 1.19-1.542 2.379-3.084 4.164-4.246 5.472 5.584 10.943 11.167 16.358 17.534a104.79 104.79 0 0 0 2.853 1.896c2.067 2.722 4.725 3.608 8.19 3.531 9.944-.22 19.895-.104 29.842-.07 18.561.066 37.122.166 56.311.385l1.301-1.031c-.463-.34-.926-.68-1.98-1.377-20.131-19.637-40.24-39.298-60.445-58.861-1.412-1.367-3.528-2.846-5.322-2.853-28.98-.112-57.96.006-87.123-.715-4.897-.387-9.789-.896-14.693-1.061-1.013-.035-2.069 1.21-4.033 1.717-28.498-.018-56.997-.088-85.494.057-2.01.01-4.505 1.113-5.944 2.544-17.95 17.851-35.749 35.855-53.578 53.828-2.135 2.152-4.22 4.355-7.128 7.361 6.54 0 11.821-.019 17.102.004 21.321.089 42.642.19 64.044 1.06.657 2.468 1.321 4.298 4.753 4.513 3.864.243 6.29 2.566 6.251 7.266-.187 23.065-.13 46.134.002 69.2.01 1.781 1.26 3.556 2.178 6.03l.24 4.472c4.302-4.066 8.017-7.567 11.72-11.08 16.244-15.4 32.485-30.804 49.035-45.571 2.7.702 5.418 1.345 8.096 2.121 3.55 1.03 4.999-.489 5.572-3.61l59.202 58.163v-6.256c.001-22.11-.488-44.235.217-66.323.338-10.582-.97-19.567-10.288-25.87-.115-.078-.134-.298-.19-1.198-1.044-.767-2.087-1.534-2.893-2.529 0 0-.22.244-.196-.491z"/><path fill="#FCFCFC" d="M208.987 122.965c28.98-.066 57.962-.184 86.941-.072 1.794.007 3.91 1.486 5.322 2.853a9322.98 9322.98 0 0 1 60.76 59.383c.12.932-.072 1.343-.264 1.753-18.561-.086-37.122-.186-55.683-.251-9.947-.035-19.898-.152-29.841.07-3.466.076-6.124-.81-8.617-4.017-1.073-1.054-1.722-1.624-2.37-2.194-5.472-5.584-10.943-11.167-16.841-17.226-3.755-3.722-7.083-6.969-10.511-10.476-.787-.87-1.473-1.48-2.328-2.396-8.968-9.347-17.768-18.387-26.568-27.427zM119 186.916c-21.321-.097-42.642-.2-63.963-.288-5.28-.023-10.562-.004-17.102-.004 2.908-3.006 4.993-5.209 7.128-7.361 17.829-17.973 35.628-35.977 53.578-53.828 1.439-1.43 3.934-2.534 5.944-2.544 28.497-.145 56.996-.075 85.86.336-10.247 11.162-20.859 21.931-31.773 32.798-1.106 1.05-1.911 2.003-3.03 3.069-6.839 6.672-13.57 13.04-19.815 19.854-4.64 5.061-9.387 9.16-16.827 7.968zM192.95 221.883c-16.24 15.402-32.48 30.806-48.724 46.206-3.704 3.513-7.419 7.014-11.72 11.08-.11-2.045-.176-3.258-.238-5.274.012-21.584.717-42.397-.23-63.134-.573-12.515 1.604-22.75 12.4-30.048.647-.438 1.047-1.244 1.868-1.97 1.729-1.653 3.152-3.216 4.889-4.908 10.004-9.966 19.694-19.803 29.648-29.761.759-.703 1.254-1.285 2.052-2.02 4.646-4.462 8.988-8.772 14.02-13.765 0 30.664 0 60.096-.294 89.658-1.124 1.079-1.954 2.028-3.009 3.055-.516.265-.662.533-.661.88z"/><path fill="#FDFDFD" d="M247.854 172.311c.746.86 1.493 1.718 2.612 2.988 1.012.927 1.652 1.444 2.29 1.96 0 0 .22-.243.21.172.958 1.23 1.927 2.045 2.896 2.86.063.154.082.374.197.452 9.318 6.303 10.626 15.288 10.288 25.87-.705 22.088-.216 44.213-.217 66.323v6.256a71408.053 71408.053 0 0 1-59.562-58.562c-1.187-2.578-2.715-4.75-2.733-6.936-.23-27.918-.243-55.837.035-83.97 1.237.364 2.129.94 3.118 1.777.427.329.755.399 1.33.686a59.593 59.593 0 0 1 2.689 3.42c1.742 1.727 3.325 3.176 4.974 4.916.683.761 1.3 1.231 1.958 1.915.157.516.374.69.836 1.03 1.128 1.129 2.116 1.96 3.203 3.072.98 1.05 1.862 1.82 2.848 2.89.749.822 1.393 1.344 2.13 2.122.646.705 1.2 1.153 1.843 1.882.69.745 1.293 1.21 2.037 1.975 1.452 1.478 2.762 2.655 4.154 4.148 3.14 3.286 6.197 6.254 9.254 9.223.312.396.624.792 1.28 1.586 1.006.914 1.668 1.43 2.33 1.945z"/><path fill="#010101" d="M218.634 143.17c-.32-.043-.538-.216-.676-1.081-.697-.994-1.37-1.426-2.043-1.858-1.583-1.448-3.166-2.897-4.881-4.975-.436-1.508-.74-2.388-.736-3.268.86-.211 1.412-.42 1.963-.63l-.92-1.015c-.443.556-.887 1.112-1.655 1.64a32.115 32.115 0 0 0-1.614-.014c-.329-.07-.657-.14-1.094-.82-1.176-1.414-2.245-2.218-3.314-3.022l-.14 1.812c.068 27.918.082 55.837.311 83.755.018 2.185 1.546 4.358 2.45 6.782.07 3.674-1.379 5.193-4.929 4.163-2.678-.776-5.396-1.419-8.25-2.439-.156-.665-.01-.933.897-1.191 1.38-1.111 2.145-2.152 2.911-3.192v-89.528c-5.031 4.993-9.373 9.303-14.347 13.658-1.454.19-2.276.334-3.099.478l1.11 1.77c-9.69 9.837-19.38 19.674-29.719 29.587-1.452-.815-2.254-1.705-3.057-2.595l-1.338.18-.464 7.468c-.515.634-.915 1.44-1.563 1.878-10.795 7.298-12.972 17.533-12.4 30.048.948 20.737.243 41.55.11 62.785-.8-1.323-2.05-3.098-2.06-4.88-.132-23.065-.19-46.134-.002-69.2.038-4.699-2.387-7.022-6.25-7.265-3.433-.215-4.097-2.045-4.795-4.9 7.4.807 12.147-3.292 16.787-8.353 6.245-6.814 12.976-13.182 20.13-19.724 4.557 1.165 2.43-2.043 3.017-3.296 10.612-10.77 21.224-21.54 31.935-32.627 1.134-.973 2.19-2.219 3.203-2.184 4.904.165 9.796.674 14.784 1.455 8.891 9.433 17.69 18.473 26.282 27.963-1.214.792-2.22 1.135-3.455 1.329-1.157.33-2.085.81-3.012 1.29-.554-.449-1.11-.897-1.763-1.966-.808-1.1-1.517-1.579-2.226-2.058-.882-.77-1.763-1.54-2.721-2.996-1.174-1.445-2.27-2.204-3.367-2.963m-75.219 35.312s.108-.063 0 0z"/><path fill="#191919" d="M244.45 168.382c-3.263-2.57-6.32-5.54-9.273-9.128 1.005-2.482 1.905-4.344 2.806-6.206 3.328 3.247 6.656 6.494 10.113 10.026-1.061 1.827-2.25 3.37-3.646 5.308zM255.865 179.918c-.972-.442-1.94-1.257-3.017-2.374.934.467 1.977 1.234 3.017 2.374zM247.851 171.94c-.659-.144-1.32-.66-2.094-1.476.623.168 1.357.636 2.094 1.476zM252.768 176.892c-.65-.149-1.29-.666-2.042-1.476.609.174 1.332.641 2.042 1.476zM265.207 180.882c.676.178 1.325.748 2.094 1.622-.627-.208-1.375-.72-2.094-1.622zM362.06 186.949c-.122-.477.07-.888.244-1.641.445-.004.908.336 1.371.676-.433.344-.867.688-1.615.965z"/><path d="M237.883 152.788c-.8 2.122-1.701 3.984-2.788 6.15-1.497-.874-2.807-2.051-3.949-3.71.381-1.394.594-2.305.806-3.215 1.006-.343 2.012-.686 3.395-1.171 1.063.467 1.75 1.076 2.536 1.946zM158.672 156.025c-.285 1.156 1.842 4.364-2.4 3.086.489-1.083 1.294-2.035 2.4-3.086zM146.306 178.744c-.152-2.399.003-4.888.158-7.378l1.338-.179c.803.89 1.605 1.78 2.743 2.723-1.087 1.617-2.51 3.18-4.24 4.834z"/><path fill="#191919" d="M196.62 217.947c-.472.91-1.237 1.95-2.393 2.984.44-.956 1.27-1.905 2.394-2.984z"/><path d="M180.843 144.074c-.634-.47-1.005-1.06-1.375-1.65.823-.143 1.645-.287 2.796-.324-.167.689-.662 1.27-1.421 1.974z"/><path fill="#191919" d="M203.87 129.725c-.3-.39-.253-.994-.206-1.598 1.069.804 2.138 1.608 3.216 2.763-.881-.226-1.773-.802-3.01-1.165zM231.723 151.864c.017 1.06-.196 1.97-.719 3.063-.912-.283-1.515-.748-2.205-1.493.84-.76 1.767-1.24 2.924-1.57zM208.318 132.187c.184-.223.614-.229 1.363-.21.319.023.308.012.308.012.304.88.609 1.759.886 2.99-.788-.625-1.55-1.6-2.557-2.792zM218.775 143.468c.956.462 2.052 1.221 3.126 2.387-1.01-.426-1.998-1.258-3.126-2.387zM215.981 140.523c.607.14 1.28.572 1.934 1.352-.635-.12-1.251-.59-1.934-1.352zM224.826 149.43c.605.18 1.314.658 2.03 1.502-.637-.158-1.281-.68-2.03-1.502z"/><path fill="#191919" d="M210.005 132.005c.449-.55.893-1.106 1.336-1.662l.92 1.015c-.55.21-1.102.419-1.963.63-.31.001-.298.012-.293.017z"/><path d="M143.469 178.452c.054-.032-.054.031 0 0z"/></symbol><symbol viewBox="0 0 24 24" fill="none" id="github-logo" xmlns="http://www.w3.org/2000/svg"><g clip-path="url(#ca)"><path d="M12 0C5.374 0 0 5.373 0 12c0 5.302 3.438 9.8 8.207 11.387.599.111.793-.261.793-.577v-2.234c-3.338.726-4.033-1.416-4.033-1.416-.546-1.387-1.333-1.756-1.333-1.756-1.089-.745.083-.729.083-.729 1.205.084 1.839 1.237 1.839 1.237 1.07 1.834 2.807 1.304 3.492.997.107-.775.418-1.305.762-1.604-2.665-.305-5.467-1.334-5.467-5.931 0-1.311.469-2.381 1.236-3.221-.124-.303-.535-1.524.117-3.176 0 0 1.008-.322 3.301 1.23A11.509 11.509 0 0 1 12 5.803c1.02.005 2.047.138 3.006.404 2.291-1.552 3.297-1.23 3.297-1.23.653 1.653.242 2.874.118 3.176.77.84 1.235 1.911 1.235 3.221 0 4.609-2.807 5.624-5.479 5.921.43.372.823 1.102.823 2.222v3.293c0 .319.192.694.801.576C20.566 21.797 24 17.3 24 12c0-6.627-5.373-12-12-12Z" fill="currentColor"/></g><defs><clipPath id="ca"><path fill="#fff" d="M0 0h24v24H0z"/></clipPath></defs></symbol><symbol viewBox="0 0 1144 324" xml:space="preserve" id="hedvig" xmlns="http://www.w3.org/2000/svg"><path d="M931 325H1c0-28.759 0-57.413.469-86.534C13.539 238 25.142 238 37.138 238V136.272h114.009v101.45h36.577V3.278h-36.888v102.437H36.829V3H1c.333-.667.547-1.784 1.022-1.909C3.112.804 4.33 1 5.497 1c266.523 0 533.047 0 800.33.295-.487 1.302-1.618 2.516-2.997 3.28-6.218 3.45-7.99 9.388-8.794 15.743-1.52 12.038 9.763 24.126 23.27 22.724 8.855-.919 17.707-4.397 20.374-19.54 1.027-5.834-1.87-15.262-10.45-19.873-.942-.507-1.496-1.735-2.23-2.629h320c0 30.022 0 60.045-.322 90.832-3.785-4.94-6.635-11.15-10.825-16.26-14.03-17.11-43.693-19.512-61.562-6.544-15.299 11.102-22.317 31.332-16.518 50.259 8.134 26.549 30.342 34.795 52.987 31.352 16.263-2.472 27.762-13.073 33.911-28.783.427-1.09 1.537-1.91 2.329-2.856v206c-59.356 0-118.712 0-178.838-.354-.273-.77.188-1.495.728-1.56 18.747-2.23 34.706-9.934 47.498-23.964 12.95-14.203 20.196-31.229 20.386-50.094.608-60.308.226-120.626.226-180.94v-4.826h-38.145V85.83c-5.014-4.43-9.255-9.19-14.408-12.553-21.057-13.746-44.424-15.697-67.997-9.757-22.378 5.638-38.867 19.896-49.492 40.673-11.53 22.548-12.479 46.402-7.76 70.499 4.234 21.614 15.494 39.672 33.637 52.382 16.199 11.348 34.37 15.865 54.567 14.187 20.602-1.712 36.609-11.038 51.05-25.003.512 9.678.614 19.21.638 29.176-.414 3.007-.724 5.585-1.095 8.154-2.14 14.804-9.54 26.256-22.737 33.27-11.802 6.271-24.558 6.905-37.547 4.152-16.743-3.55-29.143-12.366-35.307-28.843-11.135 0-22.27 0-33.8-.078-1.362 1.504-3.345 3.262-3.105 4.632.787 4.502 2.38 8.864 3.678 13.64 3.787 6.123 6.925 12.451 11.45 17.546 13.35 15.03 30.829 22.319 50.42 25.167.729.106 1.305 1.26 1.953 1.926m-358.534-87h9.286V3.25h-37.856v80.432c-7.515-4.98-14.724-10.894-22.867-14.915-16.69-8.243-34.398-10.538-52.915-6.844-24.237 4.834-42.565 17.802-54.583 39.196-9.916 17.652-13.46 36.736-11.688 57.074 1.34 15.392 5.065 29.747 12.856 43.115 9.709 16.658 23.577 28.142 41.648 34.76 13.144 4.814 26.483 5.933 40.38 4.067 12.267-1.647 23.496-5.426 33.388-12.8 4.82-3.594 9.255-7.702 14.08-11.758V238h28.271M363.564 89.041c-9.212-10.467-20.234-18.349-33.404-23.036-16.558-5.894-33.446-7.182-50.821-4.076-23.084 4.125-41.71 14.974-54.614 34.83-8.045 12.377-12.287 25.963-13.913 40.722-1.62 14.715-.79 29.03 3.23 43.167 6.502 22.861 20.34 40.114 41.377 50.997 17.55 9.079 36.429 11.014 56.02 8.489 12.56-1.62 24.152-5.438 34.738-12.19 15.626-9.969 25.73-24.24 32.035-41.944-12.814 0-25.135-.082-37.45.117-1.35.021-2.903 1.44-3.97 2.577-4.097 4.362-7.543 9.48-12.137 13.198-8.742 7.073-19.354 8.59-30.33 8.114-15.696-.68-28.657-7.098-37.109-20.25-4.623-7.195-6.94-15.873-10.663-24.758h7.198c38.82 0 77.64.015 116.46-.024 3.618-.004 7.955.766 10.594-.936 1.693-1.093.54-6.141 1.261-9.28 2.35-10.228-.14-20.13-1.822-30.05-2.225-13.115-8.417-24.515-16.68-35.667M736.08 64.447l-47.916 138.271-48.64-139.633h-40.538c3.058 7.836 6.113 15.418 8.984 23.069 8.829 23.532 17.509 47.12 26.394 70.632 9.791 25.909 19.79 51.74 29.559 77.657.918 2.435 1.769 3.661 4.629 3.625 12.66-.158 25.327.058 37.983-.215 1.745-.037 4.29-1.666 5.012-3.229 2.21-4.776 3.625-9.912 5.502-14.85a21219.65 21219.65 0 0 1 25.545-66.901c9.42-24.525 18.937-49.012 28.34-73.543 1.99-5.192 3.666-10.505 5.684-16.33-12.95 0-25.09-.017-37.23.038-.895.004-1.788.535-3.308 1.409M797 66.653v171h37.655V63c-11.67 0-22.996.02-34.322-.02-1.945-.006-3.819-.176-3.333 3.673z"/><path fill="#FAFAFA" d="M996.041 216.113c-14.03 14.11-30.037 23.436-50.639 25.148-20.198 1.678-38.368-2.84-54.567-14.187-18.143-12.71-29.403-30.768-33.636-52.382-4.72-24.097-3.77-47.951 7.76-70.499 10.624-20.777 27.113-35.035 49.49-40.673 23.574-5.94 46.941-3.989 67.998 9.757 5.153 3.364 9.394 8.123 14.408 12.553V63.262H1035v4.825c0 60.315.382 120.633-.226 180.941-.19 18.865-7.435 35.891-20.386 50.094-12.792 14.03-28.75 21.735-47.498 23.965-.54.064-1 .788-1.194 1.559-11.05.354-22.404.354-34.227.354-1.117-.666-1.693-1.82-2.422-1.926-19.591-2.848-37.07-10.137-50.42-25.167-4.525-5.095-7.663-11.423-11.089-17.64.39-2.71.582-4.976.448-7.221-.216-3.633-.646-7.254-.985-10.88l33.403.001c6.164 16.477 18.564 25.294 35.307 28.843 12.989 2.753 25.745 2.12 37.547-4.153 13.198-7.013 20.596-18.465 22.737-33.27.371-2.568.68-5.146 1.476-8.22 1.102-1.185 2.298-1.862 2.31-2.557.145-9.085.163-18.172.07-27.258-.008-.723-1.078-1.436-1.654-2.153l-2.156 2.714m-84.526-21.104c11.61 10.638 24.816 15.807 40.861 13.079 17.433-2.965 30.044-12.11 37.89-27.83 6.28-12.579 7.833-25.784 5.868-39.752-2.019-14.348-7.696-26.357-18.845-35.762C964.292 93.78 949.33 90.56 933.084 94.16c-9.923 2.2-19.016 7.221-25.517 15.029-11.705 14.058-16.041 30.423-13.724 48.864 1.789 14.236 6.697 26.534 17.672 36.956zM1 3.469C12.81 3 24.62 3 36.829 3v102.716h114.007V3.279h36.888v234.442h-36.577v-101.45H37.138V238H1.468C1 159.98 1 81.958 1 3.469zM1145 118.531c-.792 1.415-1.902 2.236-2.329 3.325-6.149 15.71-17.648 26.311-33.91 28.783-22.646 3.443-44.854-4.803-52.988-31.352-5.799-18.927 1.22-39.157 16.518-50.26 17.869-12.967 47.532-10.565 61.562 6.545 4.19 5.11 7.04 11.32 10.825 16.726.322 8.39.322 17.077.322 26.233m-22.428-42.572c-8.425-7.598-18.801-9.736-29.258-7.73-21.483 4.121-34.575 21.842-31.122 44.4 3.788 24.744 32.243 40.487 54.752 26.398 3.354-2.1 7.842-3.14 10.135-6.005 3.421-4.278 6.032-9.515 7.801-14.745 5.586-16.514 1.193-30.607-12.308-42.318zM824.532 1c1.202.894 1.756 2.122 2.698 2.629 8.58 4.61 11.477 14.039 10.45 19.873-2.667 15.143-11.519 18.621-20.373 19.54-13.508 1.402-24.792-10.686-23.27-22.724.802-6.355 2.575-12.294 8.793-15.742 1.38-.765 2.51-1.98 3.462-3.281C812.022 1 818.042 1 824.532 1zM571.971 238h-27.777v-22.423c-4.824 4.056-9.26 8.164-14.079 11.758-9.892 7.374-21.122 11.153-33.388 12.8-13.897 1.866-27.236.747-40.38-4.067-18.071-6.618-31.94-18.102-41.648-34.76-7.791-13.368-11.516-27.723-12.856-43.115-1.771-20.338 1.772-39.422 11.688-57.074 12.018-21.394 30.346-34.362 54.583-39.196 18.517-3.694 36.224-1.399 52.915 6.844 8.143 4.021 15.352 9.935 22.867 14.915V3.249h37.856V238h-9.78m-37.455-53.005c.493-.648 1.095-1.24 1.463-1.952 8.139-15.754 10.107-32.262 6.018-49.511-6.046-25.501-27.81-43.165-54.276-40.566-18.735 1.839-32.473 11.019-40.885 27.735-7.012 13.935-7.786 28.521-5.036 43.94 4.385 24.582 28.155 47.928 57.2 43.388 15.04-2.351 26.8-9.6 35.516-23.034zM363.807 89.31c8.02 10.883 14.212 22.283 16.437 35.399 1.682 9.919 4.171 19.821 1.822 30.05-.72 3.138.432 8.186-1.26 9.279-2.64 1.702-6.977.932-10.595.936-38.82.039-77.64.024-116.46.024h-7.198c3.724 8.885 6.04 17.563 10.663 24.758 8.452 13.152 21.413 19.57 37.109 20.25 10.976.475 21.588-1.041 30.33-8.114 4.594-3.717 8.04-8.836 12.136-13.198 1.068-1.137 2.62-2.556 3.97-2.577 12.316-.199 24.637-.117 37.45-.117-6.305 17.704-16.408 31.975-32.034 41.943-10.586 6.753-22.178 10.571-34.738 12.19-19.591 2.526-38.47.591-56.02-8.488-21.037-10.883-34.875-28.136-41.377-50.997-4.02-14.137-4.85-28.452-3.23-43.167 1.626-14.76 5.868-28.345 13.913-40.723 12.904-19.855 31.53-30.704 54.614-34.83 17.375-3.105 34.263-1.817 50.821 4.077 13.17 4.687 24.192 12.57 33.647 23.305m-44.286 7.643c-15.846-7.746-31.99-7.769-47.237.588-14.182 7.772-21.423 20.902-23.584 37.188h95.389c-1.26-17.032-8.671-29.801-24.568-37.776zM736.393 64.153c1.207-.58 2.1-1.111 2.996-1.115 12.14-.055 24.28-.037 37.229-.037-2.018 5.824-3.694 11.137-5.684 16.329-9.403 24.531-18.92 49.018-28.34 73.543a21219.65 21219.65 0 0 0-25.545 66.901c-1.877 4.938-3.293 10.074-5.502 14.85-.723 1.563-3.267 3.192-5.012 3.23-12.656.272-25.323.056-37.983.214-2.86.036-3.711-1.19-4.63-3.625-9.768-25.918-19.767-51.748-29.558-77.657-8.885-23.511-17.565-47.1-26.394-70.632-2.87-7.651-5.926-15.233-8.984-23.07h40.539l48.64 139.634c16.212-46.785 32.064-92.528 48.228-138.565zM797 66.168c-.486-3.364 1.388-3.194 3.333-3.187 11.326.04 22.653.02 34.322.02v174.653H797V66.168z"/><path fill="#F9F9F9" d="M996.452 216.258c.308-1.05 1.027-1.955 1.745-2.86.576.718 1.646 1.43 1.653 2.154.094 9.086.076 18.173-.07 27.258-.011.695-1.207 1.372-2.232 2.125-.482-9.466-.584-19-1.096-28.677z"/><path fill="#FAFAFA" d="M866.604 262.09c.736 3.702 1.166 7.323 1.382 10.956.134 2.245-.057 4.51-.464 6.86-1.644-4.321-3.236-8.683-4.023-13.185-.24-1.37 1.743-3.128 3.105-4.632z"/><path d="M911.263 194.758c-10.723-10.17-15.631-22.469-17.42-36.705-2.317-18.441 2.019-34.806 13.724-48.864 6.501-7.808 15.594-12.83 25.517-15.029 16.246-3.6 31.208-.38 44.205 10.584 11.15 9.405 16.826 21.414 18.845 35.762 1.965 13.968.411 27.173-5.867 39.752-7.847 15.72-20.458 24.865-37.891 27.83-16.045 2.728-29.252-2.44-41.113-13.33zM1122.938 75.992c13.135 11.678 17.528 25.77 11.942 42.285-1.77 5.23-4.38 10.467-7.801 14.745-2.293 2.866-6.78 3.906-10.135 6.005-22.51 14.089-50.964-1.654-54.752-26.397-3.453-22.559 9.64-40.28 31.122-44.4 10.457-2.007 20.833.131 29.624 7.762m-42.3 5.015c-.538.455-1.543.909-1.545 1.367-.081 16.11-.068 32.22-.068 48.389h8.06v-21.516h25.01v21.505h7.66V81.248h-7.859v21.495h-25.008V81.002c-2.031 0-3.669 0-6.25.005zM534.279 185.285c-8.478 13.144-20.237 20.393-35.277 22.744-29.046 4.54-52.816-18.806-57.201-43.388-2.75-15.419-1.976-30.005 5.036-43.94 8.412-16.716 22.15-25.896 40.885-27.735 26.466-2.599 48.23 15.065 54.276 40.566 4.09 17.249 2.12 33.757-6.018 49.51-.368.713-.97 1.305-1.701 2.243zM319.907 96.99c15.51 7.938 22.922 20.707 24.182 37.739h-95.39c2.162-16.286 9.403-29.416 23.585-37.188 15.248-8.357 31.39-8.334 47.623-.551z"/><path fill="#FAFAFA" d="M1081.11 81.004c2.11-.002 3.747-.002 5.778-.002v21.74h25.008V81.249h7.859v49.504h-7.66v-21.505h-25.01v21.516h-8.06c0-16.169-.013-32.279.068-48.389.002-.458 1.007-.912 2.016-1.37z"/></symbol><symbol id="ibkr" viewBox="0 0 230.4 88.4" style="enable-background:new 0 0 230.4 88.4" xml:space="preserve" xmlns="http://www.w3.org/2000/svg"><style>.est1{fill:#fff}</style><linearGradient id="eSVGID_1_" gradientUnits="userSpaceOnUse" x1="3253.353" y1="23.95" x2="3291.092" y2="23.95" gradientTransform="rotate(180 1646.876 45)"><stop offset="0" style="stop-color:#fff"/><stop offset="1" style="stop-color:#e6e7e8"/></linearGradient><path style="fill:url(#eSVGID_1_)" d="M40.4 86.8H2.7V45.3z"/><circle class="est1" cx="35.2" cy="55.5" r="11.3"/><path class="est1" d="M40.4 1.5 2.7 45.3v41.5zM77.9 86.7H67.2V34.8H78l-.1 51.9zM126.1 40.3c1.6 2.2 2.4 4.9 2.4 7.9 0 3.2-.8 5.7-2.4 7.6-.9 1.1-2.2 2.1-4 3 2.7 1 4.7 2.5 6 4.6 1.3 2.1 2 4.6 2 7.6 0 3.1-.8 5.8-2.3 8.3-1 1.6-2.2 3-3.7 4.1-1.7 1.3-3.6 2.1-5.9 2.6s-4.7.7-7.3.7H87.5V34.8h25.1c6.4 0 10.8 1.9 13.5 5.5zm-28.2 3.5v11.5h12.6c2.3 0 4.1-.4 5.5-1.3 1.4-.9 2.1-2.4 2.1-4.6 0-2.4-.9-4-2.8-4.8-1.6-.5-3.7-.8-6.1-.8H97.9zm0 20v13.8h12.6c2.3 0 4-.3 5.3-.9 2.3-1.1 3.4-3.3 3.4-6.5 0-2.7-1.1-4.6-3.3-5.6-1.2-.6-3-.9-5.2-.9H97.9v.1zM136.8 34.8h10.7v21.4l20.1-21.4h14l-21.3 21.4 22.4 30.6h-14l-16-22.7-5.2 5.3v17.4h-10.7v-52zM219.6 36.1c1.9.8 3.5 2 4.9 3.6 1.1 1.3 2 2.8 2.6 4.4.6 1.6 1 3.4 1 5.5 0 2.5-.6 4.9-1.9 7.3-1.2 2.4-3.3 4.1-6.2 5.1 2.4 1 4.1 2.3 5.1 4.1s1.5 4.5 1.5 8.1v3.5c0 2.4.1 4 .3 4.8.3 1.3 1 2.3 2 3v1.3h-12c-.3-1.2-.6-2.1-.7-2.8-.3-1.5-.4-2.9-.5-4.5l-.1-4.8c0-3.3-.6-5.5-1.7-6.6-1.1-1.1-3.2-1.7-6.2-1.7h-10.6v20.4h-10.6v-52h24.8c3.7 0 6.4.5 8.3 1.3zm-22.4 7.7v14h11.7c2.3 0 4.1-.3 5.2-.8 2.1-1 3.1-2.9 3.1-5.8 0-3.1-1-5.3-3-6.3-1.1-.6-2.8-.9-5-.9h-12v-.2z"/></symbol><symbol id="interactive-brokers" viewBox="0 0 452 69" style="enable-background:new 0 0 452 69" xml:space="preserve" xmlns="http://www.w3.org/2000/svg"><style>.fst0{fill:#fff}.fst2{fill:#d81222}</style><path class="fst0" d="M55.8 64.6h-7.2V29.8h7.2v34.8zM82.9 40.3c1.7 1.4 2.5 3.7 2.5 6.9v17.4h-6.9V49c0-1.4-.2-2.4-.5-3.1-.7-1.3-1.9-2-3.8-2-2.3 0-3.8 1-4.7 2.9-.4 1-.7 2.3-.7 3.9v14h-6.7V38.9h6.5v3.8c.9-1.3 1.7-2.3 2.4-2.9 1.4-1 3.1-1.6 5.3-1.6 2.7 0 4.9.7 6.6 2.1zM88.7 43.9v-4.8h3.6v-7.2H99v7.2h4.2v4.8H99v13.6c0 1.1.1 1.7.4 2s1.1.4 2.5.4h1.4v5l-3.4.1c-3.2.1-5.4-.4-6.5-1.7-.8-.8-1.1-2-1.1-3.6V43.9h-3.6zM123.9 39.4c1.8.8 3.3 2.1 4.5 3.8 1.1 1.5 1.7 3.3 2.1 5.3.2 1.2.3 2.9.2 5.1h-18.8c.1 2.6 1 4.4 2.7 5.4 1 .6 2.3 1 3.7 1 1.5 0 2.8-.4 3.7-1.2.5-.4 1-1 1.4-1.8h6.9c-.2 1.5-1 3.1-2.5 4.7-2.3 2.5-5.5 3.8-9.7 3.8-3.4 0-6.5-1.1-9.1-3.2-2.6-2.1-3.9-5.6-3.9-10.3 0-4.5 1.2-7.9 3.6-10.3 2.4-2.4 5.4-3.6 9.2-3.6 2.2.1 4.2.5 6 1.3zm-10.1 5.8c-1 1-1.6 2.3-1.8 4h11.6c-.1-1.8-.7-3.1-1.8-4.1-1.1-.9-2.4-1.4-4-1.4-1.7 0-3 .5-4 1.5zM148.9 38.3h.6v6.9c-.4 0-.8-.1-1.1-.1h-.8c-2.7 0-4.5.9-5.5 2.6-.5 1-.8 2.5-.8 4.6v12.3h-6.8V38.9h6.4v4.5c1-1.7 1.9-2.9 2.7-3.5 1.3-1.1 2.9-1.6 4.9-1.6.2-.1.3-.1.4 0zM163.6 49c1.3-.2 2.2-.4 2.7-.6 1-.4 1.5-1 1.5-1.9 0-1.1-.4-1.8-1.1-2.2-.7-.4-1.8-.6-3.3-.6-1.6 0-2.8.4-3.4 1.2-.5.6-.8 1.4-1 2.4h-6.5c.1-2.3.8-4.1 1.9-5.6 1.8-2.3 4.9-3.4 9.2-3.4 2.8 0 5.4.6 7.6 1.7 2.2 1.1 3.3 3.2 3.3 6.3v14.8c0 .9.2 1.5.4 1.8s.6.6 1 .8v1h-7.3c-.2-.5-.3-1-.4-1.5-.1-.5-.1-1-.2-1.6-.9 1-2 1.9-3.2 2.6-1.5.8-3.1 1.3-5 1.3-2.3 0-4.3-.7-5.8-2s-2.3-3.2-2.3-5.7c0-3.2 1.2-5.5 3.7-6.9 1.4-.8 3.3-1.3 6-1.7l2.2-.2zm4.1 3.1c-.4.3-.9.5-1.3.7-.4.2-1 .3-1.8.5l-1.5.3c-1.4.3-2.5.6-3.1.9-1.1.6-1.6 1.6-1.6 2.9 0 1.2.3 2 1 2.5.6.5 1.4.8 2.4.8 1.5 0 2.8-.4 4.1-1.3 1.2-.9 1.9-2.4 1.9-4.7l-.1-2.6zM195.6 48.1c-.1-1-.4-1.8-1-2.6-.8-1-1.9-1.6-3.5-1.6-2.3 0-3.8 1.1-4.7 3.4-.4 1.2-.7 2.8-.7 4.8 0 1.9.2 3.4.7 4.6.8 2.1 2.3 3.2 4.6 3.2 1.6 0 2.7-.4 3.4-1.3.7-.9 1.1-2 1.2-3.3h6.9c-.2 2.1-.9 4-2.2 5.8-2.1 2.9-5.2 4.4-9.4 4.4s-7.2-1.2-9.2-3.7c-2-2.5-2.9-5.7-2.9-9.6 0-4.4 1.1-7.9 3.2-10.3 2.2-2.5 5.1-3.7 9-3.7 3.2 0 5.9.7 7.9 2.2s3.3 4 3.7 7.7h-7zM204.7 43.9v-4.8h3.6v-7.2h6.7v7.2h4.2v4.8H215v13.6c0 1.1.1 1.7.4 2s1.1.4 2.5.4h1.4v5l-3.3.1c-3.2.1-5.4-.4-6.5-1.7-.8-.8-1.1-2-1.1-3.6V43.9h-3.7zM230.5 35.8h-6.8v-6.2h6.8v6.2zm-6.9 3.1h6.8v25.8h-6.8V38.9zM252.4 38.9h7.2l-9.3 25.8h-7.1L234 38.9h7.6l5.4 19 5.4-19zM279.3 39.4c1.8.8 3.3 2.1 4.5 3.8 1.1 1.5 1.7 3.3 2.1 5.3.2 1.2.3 2.9.2 5.1h-18.8c.1 2.6 1 4.4 2.7 5.4 1 .6 2.3 1 3.7 1 1.5 0 2.8-.4 3.7-1.2.5-.4 1-1 1.4-1.8h6.9c-.2 1.5-1 3.1-2.5 4.7-2.3 2.5-5.5 3.8-9.7 3.8-3.4 0-6.5-1.1-9.1-3.2s-3.9-5.6-3.9-10.3c0-4.5 1.2-7.9 3.6-10.3 2.4-2.4 5.4-3.6 9.2-3.6 2.2.1 4.2.5 6 1.3zm-10.1 5.8c-1 1-1.6 2.3-1.8 4H279c-.1-1.8-.7-3.1-1.8-4.1-1.1-.9-2.4-1.4-4-1.4-1.7 0-3 .5-4 1.5zM290.5 29.9h15c4.1 0 7 1.2 8.7 3.6 1 1.4 1.5 3.1 1.5 5 0 2.2-.6 4-1.9 5.4-.6.7-1.6 1.4-2.8 2 1.8.7 3.1 1.4 4 2.3 1.6 1.5 2.3 3.6 2.3 6.3 0 2.2-.7 4.3-2.1 6.1-2.1 2.7-5.5 4.1-10.1 4.1h-14.8V29.9h.2zm13.3 14.7c2 0 3.6-.3 4.7-.8 1.8-.9 2.6-2.4 2.6-4.7s-.9-3.8-2.8-4.6c-1.1-.4-2.6-.7-4.7-.7h-8.5v10.8h8.7zm1.6 16c2.9 0 5-.8 6.2-2.5.8-1.1 1.2-2.3 1.2-3.8 0-2.5-1.1-4.2-3.4-5.2-1.2-.5-2.8-.7-4.8-.7h-9.4v12.2h10.2zM322.5 39.3h4v4.4c.3-.9 1.1-1.9 2.4-3.1 1.3-1.2 2.8-1.8 4.5-1.8h.4c.2 0 .5 0 1 .1v4.5c-.3 0-.5-.1-.7-.1h-.7c-2.1 0-3.8.7-4.9 2.1-1.2 1.4-1.7 3-1.7 4.8v14.6h-4.3V39.3zM356.6 41.8c2.2 2.2 3.4 5.4 3.4 9.6 0 4.1-1 7.5-3 10.1-2 2.7-5 4-9.2 4-3.5 0-6.2-1.2-8.2-3.5-2-2.4-3.1-5.5-3.1-9.5 0-4.3 1.1-7.6 3.2-10.2 2.1-2.5 5-3.8 8.6-3.8 3.3.1 6 1.2 8.3 3.3zm-2.7 16.9c1-2.1 1.6-4.5 1.6-7.1 0-2.4-.4-4.3-1.1-5.8-1.2-2.3-3.2-3.5-6.1-3.5-2.6 0-4.4 1-5.6 3s-1.8 4.4-1.8 7.2c0 2.7.6 4.9 1.8 6.7 1.2 1.8 3 2.7 5.6 2.7 2.7 0 4.6-1.1 5.6-3.2zM364.7 29.9h4.1v20.2l10.9-10.8h5.4l-9.7 9.4 10.3 15.9h-5.4l-8-12.9-3.5 3.4v9.5h-4.1V29.9zM403.4 40c1.7.8 3 1.9 3.8 3.3.8 1.3 1.4 2.8 1.7 4.5.3 1.2.4 3 .4 5.6h-18.4c.1 2.6.7 4.6 1.8 6.2 1.1 1.6 2.9 2.3 5.2 2.3 2.2 0 4-.7 5.3-2.2.7-.9 1.3-1.8 1.6-3h4.2c-.1.9-.5 2-1.1 3.1s-1.3 2.1-2.1 2.8c-1.3 1.3-2.9 2.1-4.8 2.6-1 .3-2.2.4-3.5.4-3.1 0-5.8-1.1-8-3.4s-3.3-5.5-3.3-9.6 1.1-7.4 3.3-9.9c2.2-2.5 5.1-3.8 8.6-3.8 1.9-.2 3.6.3 5.3 1.1zm1.6 10c-.2-1.8-.6-3.3-1.2-4.4-1.2-2.1-3.1-3.1-5.8-3.1-1.9 0-3.6.7-4.9 2.1-1.3 1.4-2 3.2-2.1 5.4h14zM414.4 39.3h4v4.4c.3-.9 1.1-1.9 2.4-3.1 1.3-1.2 2.8-1.8 4.5-1.8h.4c.2 0 .5 0 1 .1v4.5c-.3 0-.5-.1-.7-.1h-.7c-2.1 0-3.8.7-4.9 2.1-1.2 1.4-1.7 3-1.7 4.8v14.6h-4.3V39.3zM433 56.7c.1 1.4.5 2.5 1.1 3.3 1.1 1.4 3 2.1 5.7 2.1 1.6 0 3-.3 4.3-1 1.2-.7 1.8-1.7 1.8-3.2 0-1.1-.5-1.9-1.5-2.5-.6-.3-1.9-.7-3.7-1.2l-3.4-.9c-2.2-.5-3.8-1.1-4.9-1.8-1.9-1.2-2.8-2.7-2.8-4.8 0-2.4.9-4.3 2.6-5.8s4.1-2.2 7.1-2.2c3.9 0 6.7 1.1 8.4 3.4 1.1 1.4 1.6 3 1.6 4.6h-4c-.1-1-.4-1.8-1-2.6-1-1.1-2.7-1.7-5.2-1.7-1.6 0-2.9.3-3.7.9-.8.6-1.3 1.4-1.3 2.4 0 1.1.6 2 1.7 2.6.6.4 1.6.7 2.8 1l2.9.7c3.1.7 5.2 1.5 6.3 2.2 1.7 1.1 2.5 2.8 2.5 5.1s-.9 4.2-2.6 5.8-4.4 2.5-7.9 2.5c-3.8 0-6.5-.9-8.1-2.6s-2.4-3.8-2.6-6.4h3.9v.1z"/><linearGradient id="fSVGID_1_" gradientUnits="userSpaceOnUse" x1="3706.782" y1="20.2" x2="3735.182" y2="20.2" gradientTransform="rotate(180 1868.122 35)"><stop offset="0" style="stop-color:#d81222"/><stop offset="1" style="stop-color:#960b1a"/></linearGradient><path style="fill:url(#fSVGID_1_)" d="M29.5 65.4H1.1V34.2z"/><circle class="fst2" cx="25.5" cy="41.8" r="8.5"/><path class="fst2" d="M29.5 1.3 1.1 34.2v31.2z"/></symbol><symbol fill="none" viewBox="0 0 100 100" id="next-logo" xmlns="http://www.w3.org/2000/svg"><mask id="ga" width="100" height="100" x="0" y="0" maskUnits="userSpaceOnUse" style="mask-type:alpha"><circle cx="50" cy="50" r="50" fill="#000"/></mask><g mask="url(#ga)"><circle cx="50" cy="50" r="50" fill="#000"/><path fill="url(#gb)" d="M83.06 87.511 38.412 30H30v39.983h6.73V38.546l41.047 53.035a50.205 50.205 0 0 0 5.283-4.07Z"/><path fill="url(#gc)" d="M63.889 30h6.667v40h-6.667z"/></g><defs><linearGradient id="gb" x1="60.556" x2="80.278" y1="64.722" y2="89.167" gradientUnits="userSpaceOnUse"><stop stop-color="#fff"/><stop offset="1" stop-color="#fff" stop-opacity="0"/></linearGradient><linearGradient id="gc" x1="67.222" x2="67.111" y1="30" y2="59.375" gradientUnits="userSpaceOnUse"><stop stop-color="#fff"/><stop offset="1" stop-color="#fff" stop-opacity="0"/></linearGradient></defs></symbol><symbol viewBox="0 0 461.001 461.001" xml:space="preserve" id="youtube" xmlns="http://www.w3.org/2000/svg"><path style="fill:#f61c0d" d="M365.257 67.393H95.744C42.866 67.393 0 110.259 0 163.137v134.728c0 52.878 42.866 95.744 95.744 95.744h269.513c52.878 0 95.744-42.866 95.744-95.744V163.137c0-52.878-42.866-95.744-95.744-95.744zm-64.751 169.663-126.06 60.123c-3.359 1.602-7.239-.847-7.239-4.568V168.607c0-3.774 3.982-6.22 7.348-4.514l126.06 63.881c3.748 1.899 3.683 7.274-.109 9.082z"/></symbol></svg>